# File created by Blade
# Date/Time:  Wed Jan 21 15:15:22 2015
# Frame Rate: 120.000 fps
#------------------------------------------------------
:FULLY-SPECIFIED
:DEGREES
312
root 18.466332 35.763774 -22.808699 205.191831 -84.776534 -198.918928
Spine -3.851084 4.716083 -12.675458
Head 12.899029 -2.786271 10.834107
LeftShoulder -8.878763 -22.007775 1.462351
LeftArm -24.627880 3.566060 -67.739348
LeftForeArm -1.359242 0.000000 8.951634
LeftHand -1.808470 -0.000000 -0.747053
LeftHandThumb1 -26.253704 0.000000 33.147579
RightShoulder -9.053737 -12.623064 10.653707
RightArm 10.874235 0.935067 68.601474
RightForeArm -25.310003 -0.000000 22.342493
RightHand -2.295573 0.000000 2.435563
RightHandThumb1 -24.326973 -0.000000 -32.862282
LeftUpLeg -8.057120 13.218286 -10.372152
LeftLeg 6.631872 -0.000000 -0.000000
LeftFoot -21.219963 14.885396 -13.532959
LeftToeBase 31.099895 -0.000000 -0.000000
RightUpLeg -7.870142 -5.337616 2.880600
RightLeg 11.604465 -0.000000 -0.000000
RightFoot -27.484883 -22.288075 16.686688
RightToeBase 23.192700 -0.000000 -0.000000
313
root 18.504206 35.748498 -22.819981 206.731185 -84.817126 -200.521767
Spine -3.716671 4.858512 -12.654678
Head 12.779399 -2.818911 10.542510
LeftShoulder -9.023847 -22.000738 1.324120
LeftArm -24.696640 3.405931 -67.687548
LeftForeArm -1.172705 -0.000000 9.010526
LeftHand -1.811243 -0.000000 -0.825057
LeftHandThumb1 -26.253704 0.000000 33.147579
RightShoulder -8.961772 -12.515787 10.493827
RightArm 10.885941 0.704843 68.668594
RightForeArm -25.222855 -0.000000 22.198154
RightHand -2.247674 0.000000 2.512803
RightHandThumb1 -24.326973 -0.000000 -32.862282
LeftUpLeg -8.486914 13.101606 -10.438726
LeftLeg 7.520228 -0.000000 -0.000000
LeftFoot -21.509402 14.671637 -13.666747
LeftToeBase 30.946277 -0.000000 -0.000000
RightUpLeg -7.731870 -5.426312 2.800883
RightLeg 11.403115 -0.000000 -0.000000
RightFoot -27.512690 -22.425783 16.260528
RightToeBase 23.377564 -0.000000 -0.000000
314
root 18.545154 35.737892 -22.835969 207.628744 -84.914859 -201.486192
Spine -3.564152 4.990422 -12.529528
Head 12.664411 -2.834017 10.259915
LeftShoulder -9.174896 -22.012123 1.115328
LeftArm -24.733971 3.329142 -67.597725
LeftForeArm -1.003532 0.000000 9.115376
LeftHand -1.932695 0.000000 -0.852661
LeftHandThumb1 -26.253704 0.000000 33.147579
RightShoulder -8.855035 -12.505994 10.379571
RightArm 10.961732 0.690629 68.752257
RightForeArm -25.232145 0.000000 22.102689
RightHand -2.176524 0.000000 2.502240
RightHandThumb1 -24.326973 -0.000000 -32.862282
LeftUpLeg -8.985209 12.993839 -10.418456
LeftLeg 8.534030 -0.000000 -0.000000
LeftFoot -21.830620 14.414092 -13.814034
LeftToeBase 30.983626 -0.000000 -0.000000
RightUpLeg -7.621533 -5.511730 2.815291
RightLeg 11.198438 -0.000000 -0.000000
RightFoot -27.379757 -22.693246 15.736777
RightToeBase 23.435099 -0.000000 -0.000000
315
root 18.590394 35.730536 -22.858347 207.300698 -85.104840 -201.191939
Spine -3.419518 5.085093 -12.196196
Head 12.530258 -2.790873 9.915504
LeftShoulder -9.349036 -22.091511 0.820424
LeftArm -24.770417 3.290881 -67.472545
LeftForeArm -0.895063 0.000000 9.151825
LeftHand -1.949551 -0.000000 -0.864990
LeftHandThumb1 -26.253704 0.000000 33.147579
RightShoulder -8.733969 -12.432750 10.261506
RightArm 10.997929 0.505693 68.732606
RightForeArm -25.086175 -0.000000 21.953500
RightHand -2.308413 -0.000000 2.617273
RightHandThumb1 -24.326973 -0.000000 -32.862282
LeftUpLeg -9.527087 12.714665 -10.229022
LeftLeg 9.585203 -0.000000 -0.000000
LeftFoot -22.192510 14.281862 -13.834625
LeftToeBase 31.114112 -0.000000 -0.000000
RightUpLeg -7.537464 -5.487849 2.982161
RightLeg 10.937361 -0.000000 -0.000000
RightFoot -27.196531 -23.094594 15.441522
RightToeBase 23.365149 -0.000000 -0.000000
316
root 18.628753 35.728040 -22.872692 206.825737 -85.220158 -200.787090
Spine -3.275676 5.273550 -11.897828
Head 12.430831 -2.893815 9.519223
LeftShoulder -9.544213 -22.102537 0.527514
LeftArm -24.690244 3.279475 -67.372472
LeftForeArm -0.761251 -0.000000 9.138038
LeftHand -1.824311 -0.000000 -1.151632
LeftHandThumb1 -26.253704 0.000000 33.147579
RightShoulder -8.601305 -12.345206 10.160339
RightArm 10.953948 0.369653 68.709270
RightForeArm -25.025553 -0.000000 21.851356
RightHand -2.318993 0.000000 2.472866
RightHandThumb1 -24.326973 -0.000000 -32.862282
LeftUpLeg -10.076716 12.304127 -10.033906
LeftLeg 10.765962 -0.000000 -0.000000
LeftFoot -22.559305 14.202426 -14.044269
LeftToeBase 31.106433 -0.000000 -0.000000
RightUpLeg -7.451280 -5.351971 3.087683
RightLeg 10.767899 -0.000000 -0.000000
RightFoot -27.054937 -23.414651 15.283450
RightToeBase 23.326867 -0.000000 -0.000000
